v 130 165 65
v 82 165 225
v 240 165 272
v 290 165 114
v 290 0 114
v 290 165 114
v 240 165 272
v 240 0 272
v 130 0 65
v 130 165 65
v 290 165 114
v 290 0 114
v 82 0 225
v 82 165 225
v 130 165 65
v 130 0 65
v 240 0 272
v 240 165 272
v 82 165 225
v 82 0 225
v 290 0 114
v 240 0 272
v 82 0 225
v 130 0 65
vt 0 0
vt 0 0
vt 0 0
vt 0 0
vt 0 0
vt 0 0
vt 0 0
vt 0 0
vt 0 0
vt 0 0
vt 0 0
vt 0 0
vt 0 0
vt 0 0
vt 0 0
vt 0 0
vt 0 0
vt 0 0
vt 0 0
vt 0 0
vt 0 0
vt 0 0
vt 0 0
vt 0 0
vn 0 1 0
vn 0 1 0
vn 0 1 0
vn 0 1 0
vn 0.953400016 0 0.301708996
vn 0.953400016 0 0.301708996
vn 0.953400016 0 0.301708996
vn 0.953400016 0 0.301708996
vn 0.292825997 0 -0.956166029
vn 0.292825997 0 -0.956166029
vn 0.292825997 0 -0.956166029
vn 0.292825997 0 -0.956166029
vn -0.957826018 0 -0.287348002
vn -0.957826018 0 -0.287348002
vn -0.957826018 0 -0.287348002
vn -0.957826018 0 -0.287348002
vn -0.285120994 0 0.958491981
vn -0.285120994 0 0.958491981
vn -0.285120994 0 0.958491981
vn -0.285120994 0 0.958491981
vn 0 -1 0
vn 0 -1 0
vn 0 -1 0
vn 0 -1 0
f 1/1/1 2/2/2 3/3/3
f 1/1/1 3/3/3 4/4/4
f 5/5/5 6/6/6 7/7/7
f 5/5/5 7/7/7 8/8/8
f 9/9/9 10/10/10 11/11/11
f 9/9/9 11/11/11 12/12/12
f 13/13/13 14/14/14 15/15/15
f 13/13/13 15/15/15 16/16/16
f 17/17/17 18/18/18 19/19/19
f 17/17/17 19/19/19 20/20/20
f 21/21/21 22/22/22 23/23/23
f 21/21/21 23/23/23 24/24/24
